HIERARCHY
ROOT Hips
{
	OFFSET 0.000000 0.000000 0.000000
	CHANNELS 6 Xposition Yposition Zposition Zrotation Yrotation Xrotation 
	JOINT LHipJoint
	{
		OFFSET 0.000000 0.000000 0.000000
		CHANNELS 3 Zrotation Yrotation Xrotation
		JOINT LeftUpLeg
		{
			OFFSET 1.363060 -1.794630 0.839290
			CHANNELS 3 Zrotation Yrotation Xrotation
			JOINT LeftLeg
			{
				OFFSET 2.448110 -6.726130 0.000000
				CHANNELS 3 Zrotation Yrotation Xrotation
				JOINT LeftFoot
				{
					OFFSET 2.562200 -7.039590 0.000000
					CHANNELS 3 Zrotation Yrotation Xrotation
					JOINT LeftToeBase
					{
						OFFSET 0.157640 -0.433110 2.322550
						CHANNELS 3 Zrotation Yrotation Xrotation
						End Site
						{
							OFFSET 0.000000 0.000000 0.000000
						}
					}
				}
			}
		}
	}
	JOINT RHipJoint
	{
		OFFSET 0.000000 0.000000 0.000000
		CHANNELS 3 Zrotation Yrotation Xrotation
		JOINT RightUpLeg
		{
			OFFSET -1.305520 -1.794630 0.839290
			CHANNELS 3 Zrotation Yrotation Xrotation
			JOINT RightLeg
			{
				OFFSET -2.542530 -6.985550 0.000000
				CHANNELS 3 Zrotation Yrotation Xrotation
				JOINT RightFoot
				{
					OFFSET -2.568260 -7.056230 0.000000
					CHANNELS 3 Zrotation Yrotation Xrotation
					JOINT RightToeBase
					{
						OFFSET -0.164730 -0.452590 2.363150
						CHANNELS 3 Zrotation Yrotation Xrotation
						End Site
						{
							OFFSET 0.000000 0.000000 0.000000
						}
					}
				}
			}
		}
	}
	JOINT LowerBack
	{
		OFFSET 0.000000 0.000000 0.000000
		CHANNELS 3 Zrotation Yrotation Xrotation
		JOINT Spine
		{
			OFFSET 0.028270 2.035590 -0.193380
			CHANNELS 3 Zrotation Yrotation Xrotation
			JOINT Spine1
			{
				OFFSET 0.056720 2.048850 -0.042750
				CHANNELS 3 Zrotation Yrotation Xrotation
				JOINT Neck
				{
					OFFSET 0.000000 0.000000 0.000000
					CHANNELS 3 Zrotation Yrotation Xrotation
					JOINT Neck1
					{
						OFFSET -0.054170 1.746240 0.172020
						CHANNELS 3 Zrotation Yrotation Xrotation
						JOINT Head
						{
							OFFSET 0.104070 1.761360 -0.123970
							CHANNELS 3 Zrotation Yrotation Xrotation
							End Site
							{
								OFFSET 0.000000 0.000000 0.000000
							}
						}
					}
				}
				JOINT LeftShoulder
				{
					OFFSET 0.000000 0.000000 0.000000
					CHANNELS 3 Zrotation Yrotation Xrotation
					JOINT LeftArm
					{
						OFFSET 3.362410 1.200890 -0.311210
						CHANNELS 3 Zrotation Yrotation Xrotation
						JOINT LeftForeArm
						{
							OFFSET 4.983000 -0.000000 -0.000000
							CHANNELS 3 Zrotation Yrotation Xrotation
							JOINT LeftHand
							{
								OFFSET 3.483560 -0.000000 -0.000000
								CHANNELS 3 Zrotation Yrotation Xrotation
								JOINT LeftFingerBase
								{
									OFFSET 0.000000 0.000000 0.000000
									CHANNELS 3 Zrotation Yrotation Xrotation
									JOINT LeftHandIndex1
									{
										OFFSET 0.715260 -0.000000 -0.000000
										CHANNELS 3 Zrotation Yrotation Xrotation
										End Site
										{
											OFFSET 0.000000 0.000000 0.000000
										}
									}
								}
								JOINT LThumb
								{
									OFFSET 0.000000 0.000000 0.000000
									CHANNELS 3 Zrotation Yrotation Xrotation
									End Site
									{
										OFFSET 0.000000 0.000000 0.000000
									}
								}
							}
						}
					}
				}
				JOINT RightShoulder
				{
					OFFSET 0.000000 0.000000 0.000000
					CHANNELS 3 Zrotation Yrotation Xrotation
					JOINT RightArm
					{
						OFFSET -3.136600 1.374050 -0.404650
						CHANNELS 3 Zrotation Yrotation Xrotation
						JOINT RightForeArm
						{
							OFFSET -5.241900 -0.000000 -0.000000
							CHANNELS 3 Zrotation Yrotation Xrotation
							JOINT RightHand
							{
								OFFSET -3.444170 -0.000000 -0.000000
								CHANNELS 3 Zrotation Yrotation Xrotation
								JOINT RightFingerBase
								{
									OFFSET 0.000000 0.000000 0.000000
									CHANNELS 3 Zrotation Yrotation Xrotation
									JOINT RightHandIndex1
									{
										OFFSET -0.622530 -0.000000 -0.000000
										CHANNELS 3 Zrotation Yrotation Xrotation
										End Site
										{
											OFFSET 0.000000 0.000000 0.000000
										}
									}
								}
								JOINT RThumb
								{
									OFFSET 0.000000 0.000000 0.000000
									CHANNELS 3 Zrotation Yrotation Xrotation
									End Site
									{
										OFFSET 0.000000 0.000000 0.000000
									}
								}
							}
						}
					}
				}
			}
		}
	}
}
MOTION
Frames: 8
Frame Time: 0.008333
-0.370794 18.033529 4.818026 -6.453865 -3.512884 0.460558 0.337580 4.519060 3.014053 -9.643738 -7.714380 -30.322085 5.579408 14.418245 46.390598 -0.031387 1.117036 6.317351 0.247400 -3.200700 -8.837900 1.808279 -4.991405 5.063924 28.997833 10.623911 -5.910362 -1.166669 -6.177619 25.315379 -0.845004 1.581204 0.318905 -0.190700 -2.812100 7.756000 4.554542 1.234527 6.035823 4.129569 2.262497 4.668721 -1.575638 0.969128 -7.935974 -4.689820 -4.556135 -16.030511 3.825978 -5.392931 18.773903 -0.190800 -2.128900 9.212900 -7.154029 2.857984 -1.261785 -81.153310 2.119149 28.295730 12.912157 -21.794413 -2.584141 -0.428029 -0.701791 -7.391740 29.208626 17.026908 9.832300 -7.125000 0.000000 0.000000 1.734700 50.116400 0.218800 11.133011 -1.718748 -2.329012 73.433703 4.392366 19.613282 -11.905950 24.187104 -2.993821 1.035965 -0.298553 1.426857 -18.935486 21.729933 -7.713200 7.125000 0.000000 0.000000 5.550000 -6.937900 4.862400
-0.366533 18.024951 4.919150 -6.542910 -3.554500 0.502034 0.278736 4.496000 2.976258 -9.476496 -7.817222 -30.301185 5.186062 14.105710 44.979573 -0.220877 1.971941 6.222632 0.258838 -3.272683 -9.038941 1.828288 -4.998264 5.109807 29.029472 10.340130 -5.563081 -1.131031 -6.102594 25.114824 -0.908455 1.767413 0.146675 -0.177385 -2.711153 7.475692 4.708002 1.289548 5.981892 4.128902 2.349281 4.616410 -1.672452 1.008124 -7.927881 -4.854676 -4.577630 -15.945802 4.005987 -5.416970 18.895866 -0.112728 -2.127079 9.242718 -7.151566 2.868181 -1.262483 -81.272939 2.319045 27.929484 12.864926 -21.722283 -2.565531 -0.429618 -0.698779 -7.185062 29.130598 16.978209 9.775112 -7.125000 0.000000 0.000000 1.662262 50.046636 0.206907 11.136623 -1.705091 -2.322812 73.309670 4.501196 19.791931 -11.936679 24.229673 -3.003308 1.038072 -0.309350 1.457739 -18.995045 21.978915 -7.824390 7.125000 0.000000 0.000000 5.531791 -6.661746 4.875943
-0.362796 18.017834 5.017861 -6.618091 -3.609547 0.562671 0.216723 4.471306 2.938708 -9.314856 -7.915489 -30.283287 4.787439 13.781304 43.540005 -0.402798 2.794048 6.271763 0.248142 -3.185369 -8.796912 1.850392 -5.005212 5.152254 29.049663 10.124054 -5.225553 -1.093879 -6.026984 24.908250 -0.958264 1.911054 -0.010103 -0.167452 -2.635915 7.266783 4.832492 1.349038 5.935473 4.126441 2.438731 4.566717 -1.754204 1.049585 -7.922951 -4.993960 -4.596746 -15.872429 4.165544 -5.439864 18.981425 -0.045026 -2.126501 9.262221 -7.149569 2.877047 -1.262926 -81.387653 2.492612 27.578338 12.811552 -21.640479 -2.544671 -0.431594 -0.694510 -6.979269 29.054889 16.866785 9.685462 -7.125000 0.000000 0.000000 1.601325 49.905887 0.193772 11.139146 -1.692777 -2.317389 73.190985 4.618759 19.967165 -11.980812 24.291537 -3.017918 1.040495 -0.323133 1.485313 -19.063205 22.303691 -7.965653 7.125000 0.000000 0.000000 5.515100 -6.303064 4.899428
-0.360694 18.015277 5.109042 -6.649998 -3.706513 0.683112 0.144815 4.441514 2.901923 -9.170701 -7.999474 -30.274758 4.372347 13.419850 42.011351 -0.561096 3.513785 6.769878 0.168363 -2.600854 -7.171968 1.879036 -5.012435 5.183973 29.034123 10.119305 -4.918466 -1.052005 -5.949545 24.682890 -0.965499 1.921832 -0.118654 -0.168078 -2.640923 7.280724 4.866561 1.422473 5.912498 4.118383 2.536502 4.525198 -1.788940 1.098745 -7.927891 -5.053427 -4.608439 -15.834441 4.261267 -5.459184 18.953359 -0.009688 -2.129801 9.249531 -7.149028 2.881755 -1.262573 -81.487024 2.583998 27.274324 12.739004 -21.528478 -2.516789 -0.434777 -0.686319 -6.776237 28.986418 16.559583 9.494493 -7.125000 0.000000 0.000000 1.576287 49.543581 0.176757 11.138270 -1.684657 -2.314392 73.088989 4.763584 20.131738 -12.066782 24.413628 -3.048518 1.043903 -0.346239 1.502565 -19.158211 22.865033 -8.200779 7.125000 0.000000 0.000000 5.503151 -5.686797 4.953941
-0.358372 18.009522 5.199011 -6.756603 -3.795144 0.807078 0.079178 4.409645 2.863843 -8.929242 -8.075148 -30.273703 3.955341 13.047236 40.458419 -0.679669 4.086658 7.298284 0.107307 -2.082531 -5.734890 1.905951 -5.015180 5.213425 29.114294 10.099974 -4.613999 -1.013123 -5.869372 24.459335 -0.946804 1.860076 -0.181119 -0.173095 -2.679317 7.387287 4.979224 1.493117 5.890285 4.126300 2.637773 4.505068 -1.854218 1.149047 -7.912324 -5.031989 -4.614280 -15.836502 4.271964 -5.473389 18.888211 -0.013261 -2.135587 9.229331 -7.150637 2.883675 -1.263463 -81.554762 2.641700 27.083791 12.663186 -21.412263 -2.487239 -0.434779 -0.682774 -6.757525 28.885898 16.402582 9.372064 -7.125000 0.000000 0.000000 1.497787 49.347214 0.160627 11.135322 -1.678500 -2.310097 73.009363 4.968952 20.262168 -12.135621 24.509205 -3.073825 1.043582 -0.366313 1.520776 -19.152509 23.330103 -8.357175 7.125000 0.000000 0.000000 5.548613 -5.188556 5.048773
-0.355815 18.000376 5.287692 -6.942434 -3.874933 0.934781 0.020192 4.375574 2.824388 -8.584582 -8.142007 -30.280574 3.536308 12.662784 38.879739 -0.756109 4.503765 7.858818 0.066108 -1.634414 -4.497062 1.931033 -5.013175 5.240473 29.295977 10.065180 -4.312310 -0.977415 -5.786299 24.237694 -0.900610 1.721390 -0.194706 -0.182768 -2.753121 7.592083 5.175245 1.560801 5.868880 4.151161 2.742756 4.507625 -1.951890 1.200560 -7.875006 -4.924742 -4.613915 -15.881040 4.192481 -5.482169 18.783736 -0.058101 -2.144009 9.201163 -7.154527 2.882637 -1.265672 -81.588950 2.663678 27.013617 12.583898 -21.291579 -2.455920 -0.431409 -0.684158 -6.934305 28.751385 16.404885 9.322331 -7.125000 0.000000 0.000000 1.362583 49.326842 0.145433 11.130174 -1.674423 -2.304424 72.953464 5.238534 20.356389 -12.186291 24.576662 -3.093518 1.039307 -0.383174 1.540005 -19.039994 23.693065 -8.430069 7.125000 0.000000 0.000000 5.654966 -4.815495 5.186367
-0.351770 17.998756 5.382784 -6.956805 -3.894574 1.057096 -0.062906 4.342649 2.785542 -8.411689 -8.337356 -30.216724 3.117326 12.235757 37.279375 -0.829793 4.855383 8.074423 0.060078 -1.579770 -4.345708 1.961883 -5.018023 5.278962 29.251951 9.904837 -4.046583 -0.932458 -5.702169 23.990989 -0.876665 1.644178 -0.195670 -0.191572 -2.818144 7.772772 5.226209 1.605049 5.757773 4.122836 2.796894 4.485074 -1.987138 1.232563 -7.816335 -4.820510 -4.609069 -15.857069 4.058453 -5.483098 18.733517 -0.116445 -2.153632 9.177428 -7.157658 2.880319 -1.270156 -81.638639 2.857269 26.944122 12.555774 -21.249674 -2.444223 -0.430188 -0.687805 -7.216076 28.787408 16.427523 9.349104 -7.125000 0.000000 0.000000 1.397461 49.359740 0.150372 11.132794 -1.672673 -2.296185 72.875357 5.515763 20.433957 -12.128733 24.483222 -3.059516 1.044990 -0.402118 1.584159 -19.175266 24.063874 -8.621887 7.125000 0.000000 0.000000 5.604120 -4.393928 5.182833
-0.347168 17.999949 5.480272 -6.907095 -3.891735 1.177398 -0.155016 4.310152 2.746924 -8.302993 -8.580726 -30.126443 2.698364 11.792819 35.670907 -0.902447 5.182524 8.161116 0.067191 -1.672182 -4.600409 1.994887 -5.025432 5.321726 29.123570 9.697571 -3.794296 -0.884044 -5.617644 23.734916 -0.861037 1.589942 -0.191915 -0.200051 -2.879884 7.944451 5.222961 1.640538 5.613142 4.074633 2.832028 4.453139 -1.999057 1.257275 -7.749683 -4.717404 -4.602550 -15.807494 3.904039 -5.481093 18.703576 -0.179836 -2.163704 9.155349 -7.160506 2.877523 -1.275490 -81.694122 3.114999 26.874882 12.546773 -21.237213 -2.439860 -0.429770 -0.692299 -7.537087 28.887167 16.457761 9.404472 -7.125000 0.000000 0.000000 1.495905 49.412547 0.162833 11.138318 -1.671793 -2.286987 72.788951 5.795851 20.505303 -12.030726 24.329649 -3.005445 1.054395 -0.421840 1.637628 -19.403144 24.437617 -8.858151 7.125000 0.000000 0.000000 5.494523 -3.954232 5.126555
